<svg xmlns="http://www.w3.org/2000/svg" viewBox="0 0 64 64" width="64" height="64" shape-rendering="crispEdges">
  <rect x="28" y="0" width="4" height="4" fill="#F9A825"/>
  <rect x="32" y="0" width="4" height="4" fill="#F9A825"/>
  <rect x="28" y="4" width="4" height="4" fill="#F9A825"/>
  <rect x="32" y="4" width="4" height="4" fill="#F9A825"/>
  <rect x="24" y="8" width="4" height="4" fill="#F9A825"/>
  <rect x="28" y="8" width="4" height="4" fill="#F9A825"/>
  <rect x="32" y="8" width="4" height="4" fill="#F9A825"/>
  <rect x="36" y="8" width="4" height="4" fill="#F9A825"/>
  <rect x="24" y="12" width="4" height="4" fill="#F9A825"/>
  <rect x="28" y="12" width="4" height="4" fill="#F9A825"/>
  <rect x="32" y="12" width="4" height="4" fill="#F9A825"/>
  <rect x="36" y="12" width="4" height="4" fill="#F9A825"/>
  <rect x="0" y="16" width="4" height="4" fill="#FFD54F"/>
  <rect x="4" y="16" width="4" height="4" fill="#FFD54F"/>
  <rect x="8" y="16" width="4" height="4" fill="#FFD54F"/>
  <rect x="12" y="16" width="4" height="4" fill="#FFD54F"/>
  <rect x="16" y="16" width="4" height="4" fill="#FFD54F"/>
  <rect x="20" y="16" width="4" height="4" fill="#FFF176"/>
  <rect x="24" y="16" width="4" height="4" fill="#FFF176"/>
  <rect x="28" y="16" width="4" height="4" fill="#FFF176"/>
  <rect x="32" y="16" width="4" height="4" fill="#FFF176"/>
  <rect x="36" y="16" width="4" height="4" fill="#FFF176"/>
  <rect x="40" y="16" width="4" height="4" fill="#FFF176"/>
  <rect x="44" y="16" width="4" height="4" fill="#FFD54F"/>
  <rect x="48" y="16" width="4" height="4" fill="#FFD54F"/>
  <rect x="52" y="16" width="4" height="4" fill="#FFD54F"/>
  <rect x="56" y="16" width="4" height="4" fill="#FFD54F"/>
  <rect x="60" y="16" width="4" height="4" fill="#FFD54F"/>
  <rect x="4" y="20" width="4" height="4" fill="#FFD54F"/>
  <rect x="8" y="20" width="4" height="4" fill="#FFD54F"/>
  <rect x="12" y="20" width="4" height="4" fill="#FFD54F"/>
  <rect x="16" y="20" width="4" height="4" fill="#FFD54F"/>
  <rect x="20" y="20" width="4" height="4" fill="#FFF176"/>
  <rect x="24" y="20" width="4" height="4" fill="#FFF176"/>
  <rect x="28" y="20" width="4" height="4" fill="#FFF176"/>
  <rect x="32" y="20" width="4" height="4" fill="#FFF176"/>
  <rect x="36" y="20" width="4" height="4" fill="#FFF176"/>
  <rect x="40" y="20" width="4" height="4" fill="#FFF176"/>
  <rect x="44" y="20" width="4" height="4" fill="#FFD54F"/>
  <rect x="48" y="20" width="4" height="4" fill="#FFD54F"/>
  <rect x="52" y="20" width="4" height="4" fill="#FFD54F"/>
  <rect x="56" y="20" width="4" height="4" fill="#FFD54F"/>
  <rect x="8" y="24" width="4" height="4" fill="#FFD54F"/>
  <rect x="12" y="24" width="4" height="4" fill="#FFD54F"/>
  <rect x="16" y="24" width="4" height="4" fill="#FFD54F"/>
  <rect x="20" y="24" width="4" height="4" fill="#FFF176"/>
  <rect x="24" y="24" width="4" height="4" fill="#FFF176"/>
  <rect x="28" y="24" width="4" height="4" fill="#FFF176"/>
  <rect x="32" y="24" width="4" height="4" fill="#FFF176"/>
  <rect x="36" y="24" width="4" height="4" fill="#FFF176"/>
  <rect x="40" y="24" width="4" height="4" fill="#FFF176"/>
  <rect x="44" y="24" width="4" height="4" fill="#FFD54F"/>
  <rect x="48" y="24" width="4" height="4" fill="#FFD54F"/>
  <rect x="52" y="24" width="4" height="4" fill="#FFD54F"/>
  <rect x="12" y="28" width="4" height="4" fill="#FFD54F"/>
  <rect x="16" y="28" width="4" height="4" fill="#FFD54F"/>
  <rect x="20" y="28" width="4" height="4" fill="#FFF176"/>
  <rect x="24" y="28" width="4" height="4" fill="#FFF176"/>
  <rect x="28" y="28" width="4" height="4" fill="#FFF176"/>
  <rect x="32" y="28" width="4" height="4" fill="#FFF176"/>
  <rect x="36" y="28" width="4" height="4" fill="#FFF176"/>
  <rect x="40" y="28" width="4" height="4" fill="#FFF176"/>
  <rect x="44" y="28" width="4" height="4" fill="#FFD54F"/>
  <rect x="48" y="28" width="4" height="4" fill="#FFD54F"/>
  <rect x="16" y="32" width="4" height="4" fill="#FFD54F"/>
  <rect x="20" y="32" width="4" height="4" fill="#FFF176"/>
  <rect x="24" y="32" width="4" height="4" fill="#FFF176"/>
  <rect x="28" y="32" width="4" height="4" fill="#FFF176"/>
  <rect x="32" y="32" width="4" height="4" fill="#FFF176"/>
  <rect x="36" y="32" width="4" height="4" fill="#FFF176"/>
  <rect x="40" y="32" width="4" height="4" fill="#FFF176"/>
  <rect x="44" y="32" width="4" height="4" fill="#FFD54F"/>
  <rect x="16" y="36" width="4" height="4" fill="#FFD54F"/>
  <rect x="20" y="36" width="4" height="4" fill="#FFD54F"/>
  <rect x="24" y="36" width="4" height="4" fill="#FFD54F"/>
  <rect x="28" y="36" width="4" height="4" fill="#FFD54F"/>
  <rect x="32" y="36" width="4" height="4" fill="#FFD54F"/>
  <rect x="36" y="36" width="4" height="4" fill="#FFD54F"/>
  <rect x="40" y="36" width="4" height="4" fill="#FFD54F"/>
  <rect x="44" y="36" width="4" height="4" fill="#FFD54F"/>
  <rect x="12" y="40" width="4" height="4" fill="#FFD54F"/>
  <rect x="16" y="40" width="4" height="4" fill="#FFD54F"/>
  <rect x="20" y="40" width="4" height="4" fill="#FFD54F"/>
  <rect x="24" y="40" width="4" height="4" fill="#FFD54F"/>
  <rect x="36" y="40" width="4" height="4" fill="#FFD54F"/>
  <rect x="40" y="40" width="4" height="4" fill="#FFD54F"/>
  <rect x="44" y="40" width="4" height="4" fill="#FFD54F"/>
  <rect x="48" y="40" width="4" height="4" fill="#FFD54F"/>
  <rect x="12" y="44" width="4" height="4" fill="#FFD54F"/>
  <rect x="16" y="44" width="4" height="4" fill="#FFD54F"/>
  <rect x="20" y="44" width="4" height="4" fill="#FFD54F"/>
  <rect x="40" y="44" width="4" height="4" fill="#FFD54F"/>
  <rect x="44" y="44" width="4" height="4" fill="#FFD54F"/>
  <rect x="48" y="44" width="4" height="4" fill="#FFD54F"/>
  <rect x="8" y="48" width="4" height="4" fill="#F9A825"/>
  <rect x="12" y="48" width="4" height="4" fill="#F9A825"/>
  <rect x="16" y="48" width="4" height="4" fill="#F9A825"/>
  <rect x="44" y="48" width="4" height="4" fill="#F9A825"/>
  <rect x="48" y="48" width="4" height="4" fill="#F9A825"/>
  <rect x="52" y="48" width="4" height="4" fill="#F9A825"/>
  <rect x="4" y="52" width="4" height="4" fill="#F9A825"/>
  <rect x="8" y="52" width="4" height="4" fill="#F9A825"/>
  <rect x="12" y="52" width="4" height="4" fill="#F9A825"/>
  <rect x="48" y="52" width="4" height="4" fill="#F9A825"/>
  <rect x="52" y="52" width="4" height="4" fill="#F9A825"/>
  <rect x="56" y="52" width="4" height="4" fill="#F9A825"/>
  <rect x="4" y="56" width="4" height="4" fill="#F9A825"/>
  <rect x="8" y="56" width="4" height="4" fill="#F9A825"/>
  <rect x="52" y="56" width="4" height="4" fill="#F9A825"/>
  <rect x="56" y="56" width="4" height="4" fill="#F9A825"/>
  <rect x="0" y="60" width="4" height="4" fill="#F9A825"/>
  <rect x="4" y="60" width="4" height="4" fill="#F9A825"/>
  <rect x="56" y="60" width="4" height="4" fill="#F9A825"/>
  <rect x="60" y="60" width="4" height="4" fill="#F9A825"/>
</svg>