<svg xmlns="http://www.w3.org/2000/svg" viewBox="0 0 64 64" width="64" height="64" shape-rendering="crispEdges">
  <rect x="8" y="28" width="4" height="4" fill="#C0C0C8"/>
  <rect x="12" y="28" width="4" height="4" fill="#C0C0C8"/>
  <rect x="16" y="28" width="4" height="4" fill="#C0C0C8"/>
  <rect x="20" y="28" width="4" height="4" fill="#C0C0C8"/>
  <rect x="24" y="28" width="4" height="4" fill="#C0C0C8"/>
  <rect x="28" y="28" width="4" height="4" fill="#C0C0C8"/>
  <rect x="32" y="28" width="4" height="4" fill="#C0C0C8"/>
  <rect x="36" y="28" width="4" height="4" fill="#C0C0C8"/>
  <rect x="40" y="28" width="4" height="4" fill="#C0C0C8"/>
  <rect x="44" y="28" width="4" height="4" fill="#C0C0C8"/>
  <rect x="48" y="28" width="4" height="4" fill="#C0C0C8"/>
  <rect x="52" y="28" width="4" height="4" fill="#C0C0C8"/>
  <rect x="8" y="32" width="4" height="4" fill="#C0C0C8"/>
  <rect x="12" y="32" width="4" height="4" fill="#C0C0C8"/>
  <rect x="16" y="32" width="4" height="4" fill="#C0C0C8"/>
  <rect x="20" y="32" width="4" height="4" fill="#C0C0C8"/>
  <rect x="24" y="32" width="4" height="4" fill="#C0C0C8"/>
  <rect x="28" y="32" width="4" height="4" fill="#C0C0C8"/>
  <rect x="32" y="32" width="4" height="4" fill="#C0C0C8"/>
  <rect x="36" y="32" width="4" height="4" fill="#C0C0C8"/>
  <rect x="40" y="32" width="4" height="4" fill="#C0C0C8"/>
  <rect x="44" y="32" width="4" height="4" fill="#C0C0C8"/>
  <rect x="48" y="32" width="4" height="4" fill="#C0C0C8"/>
  <rect x="52" y="32" width="4" height="4" fill="#C0C0C8"/>
  <rect x="8" y="36" width="4" height="4" fill="#C0C0C8"/>
  <rect x="12" y="36" width="4" height="4" fill="#C0C0C8"/>
  <rect x="16" y="36" width="4" height="4" fill="#C0C0C8"/>
  <rect x="20" y="36" width="4" height="4" fill="#C0C0C8"/>
  <rect x="24" y="36" width="4" height="4" fill="#C0C0C8"/>
  <rect x="28" y="36" width="4" height="4" fill="#C0C0C8"/>
  <rect x="32" y="36" width="4" height="4" fill="#C0C0C8"/>
  <rect x="36" y="36" width="4" height="4" fill="#C0C0C8"/>
  <rect x="40" y="36" width="4" height="4" fill="#C0C0C8"/>
  <rect x="44" y="36" width="4" height="4" fill="#C0C0C8"/>
  <rect x="48" y="36" width="4" height="4" fill="#C0C0C8"/>
  <rect x="52" y="36" width="4" height="4" fill="#C0C0C8"/>
  <rect x="8" y="40" width="4" height="4" fill="#C0C0C8"/>
  <rect x="12" y="40" width="4" height="4" fill="#C0C0C8"/>
  <rect x="16" y="40" width="4" height="4" fill="#C0C0C8"/>
  <rect x="20" y="40" width="4" height="4" fill="#C0C0C8"/>
  <rect x="24" y="40" width="4" height="4" fill="#C0C0C8"/>
  <rect x="28" y="40" width="4" height="4" fill="#C0C0C8"/>
  <rect x="32" y="40" width="4" height="4" fill="#C0C0C8"/>
  <rect x="36" y="40" width="4" height="4" fill="#C0C0C8"/>
  <rect x="40" y="40" width="4" height="4" fill="#C0C0C8"/>
  <rect x="44" y="40" width="4" height="4" fill="#C0C0C8"/>
  <rect x="48" y="40" width="4" height="4" fill="#C0C0C8"/>
  <rect x="52" y="40" width="4" height="4" fill="#C0C0C8"/>
  <rect x="8" y="44" width="4" height="4" fill="#C0C0C8"/>
  <rect x="12" y="44" width="4" height="4" fill="#C0C0C8"/>
  <rect x="16" y="44" width="4" height="4" fill="#C0C0C8"/>
  <rect x="20" y="44" width="4" height="4" fill="#C0C0C8"/>
  <rect x="24" y="44" width="4" height="4" fill="#C0C0C8"/>
  <rect x="28" y="44" width="4" height="4" fill="#C0C0C8"/>
  <rect x="32" y="44" width="4" height="4" fill="#C0C0C8"/>
  <rect x="36" y="44" width="4" height="4" fill="#C0C0C8"/>
  <rect x="40" y="44" width="4" height="4" fill="#C0C0C8"/>
  <rect x="44" y="44" width="4" height="4" fill="#C0C0C8"/>
  <rect x="48" y="44" width="4" height="4" fill="#C0C0C8"/>
  <rect x="52" y="44" width="4" height="4" fill="#C0C0C8"/>
  <rect x="8" y="28" width="4" height="4" fill="#A0A0A8"/>
  <rect x="52" y="28" width="4" height="4" fill="#A0A0A8"/>
  <rect x="8" y="32" width="4" height="4" fill="#A0A0A8"/>
  <rect x="52" y="32" width="4" height="4" fill="#A0A0A8"/>
  <rect x="8" y="36" width="4" height="4" fill="#A0A0A8"/>
  <rect x="52" y="36" width="4" height="4" fill="#A0A0A8"/>
  <rect x="8" y="40" width="4" height="4" fill="#A0A0A8"/>
  <rect x="52" y="40" width="4" height="4" fill="#A0A0A8"/>
  <rect x="8" y="44" width="4" height="4" fill="#A0A0A8"/>
  <rect x="52" y="44" width="4" height="4" fill="#A0A0A8"/>
  <rect x="8" y="28" width="4" height="4" fill="#A0A0A8"/>
  <rect x="8" y="44" width="4" height="4" fill="#888"/>
  <rect x="12" y="28" width="4" height="4" fill="#A0A0A8"/>
  <rect x="12" y="44" width="4" height="4" fill="#888"/>
  <rect x="16" y="28" width="4" height="4" fill="#A0A0A8"/>
  <rect x="16" y="44" width="4" height="4" fill="#888"/>
  <rect x="20" y="28" width="4" height="4" fill="#A0A0A8"/>
  <rect x="20" y="44" width="4" height="4" fill="#888"/>
  <rect x="24" y="28" width="4" height="4" fill="#A0A0A8"/>
  <rect x="24" y="44" width="4" height="4" fill="#888"/>
  <rect x="28" y="28" width="4" height="4" fill="#A0A0A8"/>
  <rect x="28" y="44" width="4" height="4" fill="#888"/>
  <rect x="32" y="28" width="4" height="4" fill="#A0A0A8"/>
  <rect x="32" y="44" width="4" height="4" fill="#888"/>
  <rect x="36" y="28" width="4" height="4" fill="#A0A0A8"/>
  <rect x="36" y="44" width="4" height="4" fill="#888"/>
  <rect x="40" y="28" width="4" height="4" fill="#A0A0A8"/>
  <rect x="40" y="44" width="4" height="4" fill="#888"/>
  <rect x="44" y="28" width="4" height="4" fill="#A0A0A8"/>
  <rect x="44" y="44" width="4" height="4" fill="#888"/>
  <rect x="48" y="28" width="4" height="4" fill="#A0A0A8"/>
  <rect x="48" y="44" width="4" height="4" fill="#888"/>
  <rect x="52" y="28" width="4" height="4" fill="#A0A0A8"/>
  <rect x="52" y="44" width="4" height="4" fill="#888"/>
  <rect x="28" y="12" width="4" height="4" fill="#E84040"/>
  <rect x="32" y="12" width="4" height="4" fill="#E84040"/>
  <rect x="28" y="16" width="4" height="4" fill="#D03030"/>
  <rect x="32" y="16" width="4" height="4" fill="#D03030"/>
  <rect x="28" y="20" width="4" height="4" fill="#C02828"/>
  <rect x="32" y="20" width="4" height="4" fill="#C02828"/>
  <rect x="28" y="24" width="4" height="4" fill="#B02020"/>
  <rect x="32" y="24" width="4" height="4" fill="#B02020"/>
  <rect x="28" y="36" width="4" height="4" fill="#666"/>
  <rect x="32" y="36" width="4" height="4" fill="#666"/>
  <rect x="0" y="36" width="4" height="4" fill="#555"/>
  <rect x="4" y="36" width="4" height="4" fill="#555"/>
  <rect x="56" y="36" width="4" height="4" fill="#555"/>
  <rect x="60" y="36" width="4" height="4" fill="#555"/>
</svg>