<svg xmlns="http://www.w3.org/2000/svg" viewBox="0 0 64 64" width="64" height="64" shape-rendering="crispEdges">
  <rect x="12" y="16" width="4" height="4" fill="#F0F0F0"/>
  <rect x="8" y="20" width="4" height="4" fill="#F0F0F0"/>
  <rect x="4" y="24" width="4" height="4" fill="#F0F0F0"/>
  <rect x="8" y="28" width="4" height="4" fill="#F0F0F0"/>
  <rect x="12" y="32" width="4" height="4" fill="#F0F0F0"/>
  <rect x="16" y="16" width="4" height="4" fill="#F0F0F0"/>
  <rect x="12" y="20" width="4" height="4" fill="#F0F0F0"/>
  <rect x="8" y="24" width="4" height="4" fill="#F0F0F0"/>
  <rect x="12" y="28" width="4" height="4" fill="#F0F0F0"/>
  <rect x="16" y="32" width="4" height="4" fill="#F0F0F0"/>
  <rect x="16" y="24" width="4" height="4" fill="#F0F0F0"/>
  <rect x="20" y="20" width="4" height="4" fill="#F0F0F0"/>
  <rect x="24" y="16" width="4" height="4" fill="#F0F0F0"/>
  <rect x="28" y="12" width="4" height="4" fill="#F0F0F0"/>
  <rect x="32" y="12" width="4" height="4" fill="#F0F0F0"/>
  <rect x="36" y="12" width="4" height="4" fill="#F0F0F0"/>
  <rect x="40" y="12" width="4" height="4" fill="#F0F0F0"/>
  <rect x="44" y="16" width="4" height="4" fill="#F0F0F0"/>
  <rect x="48" y="20" width="4" height="4" fill="#F0F0F0"/>
  <rect x="48" y="24" width="4" height="4" fill="#F0F0F0"/>
  <rect x="48" y="28" width="4" height="4" fill="#F0F0F0"/>
  <rect x="44" y="32" width="4" height="4" fill="#F0F0F0"/>
  <rect x="40" y="36" width="4" height="4" fill="#F0F0F0"/>
  <rect x="36" y="36" width="4" height="4" fill="#F0F0F0"/>
  <rect x="32" y="36" width="4" height="4" fill="#F0F0F0"/>
</svg>